<svg width="355" height="238" viewBox="0 0 355 238" fill="none" xmlns="http://www.w3.org/2000/svg">
<g clip-path="url(#clip0_2_1495)">
<path d="M355 0H0V238H355V0Z" fill="#F7CEDC"/>
<path d="M252.707 117.427H249.965V149.32H252.707V117.427Z" fill="#FFCEB6"/>
<path d="M176.032 152.531L175.157 151.636C170.781 151.293 164.131 149.532 159.919 144.318C159.673 144.014 159.448 143.694 159.244 143.36C158.866 142.751 158.601 142.079 158.46 141.376C157.744 137.615 161.623 134.877 163.45 134.429C165.748 133.872 169.703 134.596 171.297 134.935C171.734 135.03 171.995 135.091 171.995 135.091C172.28 135.113 172.566 135.113 172.851 135.091C173.047 135.08 173.257 135.066 173.483 135.048C173.555 135.048 173.628 135.041 173.704 135.033C173.748 135.033 173.79 135.033 173.835 135.026C174.703 134.965 175.573 134.976 176.439 135.059C176.686 135.084 176.944 135.121 177.209 135.165C177.354 135.19 177.5 135.219 177.648 135.25C177.768 135.276 177.888 135.305 178.011 135.336C178.102 135.358 178.193 135.383 178.284 135.409C178.47 135.46 178.655 135.514 178.839 135.576C178.848 135.58 178.856 135.582 178.865 135.584C178.951 135.612 179.036 135.642 179.122 135.675V135.671C180.454 136.165 181.688 136.892 182.768 137.816C183.774 138.669 184.881 139.557 186.033 140.442C187.574 141.622 189.192 142.797 190.776 143.867C190.776 143.867 191.35 143.977 192.207 144.086L192.218 143.995V133.4H213.216C216.641 140.695 222.006 153.931 225.808 164.548C229.763 175.587 242.474 194.868 245.053 201.313C248.122 208.973 248.122 213.241 248.122 213.241H202.958C202.978 211.558 202.8 209.877 202.428 208.235L204.074 200.854C202.796 200.887 200.783 200.854 200.783 200.854V200.861C200.551 200.811 199.399 200.523 194.705 199.296C187.543 197.424 172.013 177.942 172.013 177.942C170.445 177.206 167.695 173.77 166.068 171.611C165.256 170.534 164.762 169.252 164.641 167.908H164.615C164.615 167.908 156.455 166.963 152.071 165.563C152.071 165.563 145.087 163.728 143.14 162.887C143.14 162.887 130.938 158.347 127.854 156.56C124.771 154.772 126.228 147.279 132.401 149.07C136.037 150.122 139.24 151.189 139.389 151.24C140.78 152.242 142.449 152.78 144.162 152.777H153.192C153.192 152.777 163.717 155.074 165.696 155.514L165.953 155.529C166.161 154.571 166.497 153.645 166.951 152.777H175.849L176.032 152.531Z" fill="#FFCEB6"/>
<path d="M245.621 127.625C245.647 127.589 245.671 127.553 245.697 127.519C245.605 128.431 245.262 129.3 244.706 130.028C244.331 130.567 243.79 130.969 243.167 131.174C242.544 131.378 241.871 131.374 241.25 131.161L239.11 133.884L236.713 130.833L238.853 128.111C238.674 127.357 238.66 126.574 238.814 125.815C238.968 125.055 239.284 124.339 239.743 123.715C240.224 123.066 240.927 122.619 241.718 122.459C241.687 122.488 241.658 122.52 241.633 122.554C241.096 123.291 240.807 124.178 240.807 125.09C240.807 126.002 241.096 126.889 241.633 127.626C241.856 127.948 242.154 128.212 242.502 128.394C242.849 128.577 243.235 128.671 243.627 128.671C244.019 128.671 244.405 128.576 244.753 128.394C245.1 128.211 245.398 127.947 245.621 127.625Z" fill="#CCEFF6"/>
<path d="M243.703 138.642C244.142 139.243 244.379 139.968 244.379 140.712C244.379 141.456 244.142 142.181 243.703 142.781C243.521 143.045 243.277 143.261 242.994 143.41C242.71 143.558 242.395 143.636 242.075 143.636C241.754 143.636 241.439 143.558 241.155 143.41C240.871 143.261 240.628 143.045 240.445 142.781C240.009 142.197 239.773 141.487 239.774 140.758L239.745 140.797L236.705 136.935L234.308 133.884L232.168 131.161C231.547 131.375 230.873 131.38 230.249 131.175C229.624 130.971 229.083 130.568 228.707 130.029C228.153 129.3 227.811 128.432 227.719 127.52C227.744 127.553 227.766 127.589 227.795 127.626C228.018 127.949 228.316 128.213 228.663 128.396C229.01 128.578 229.397 128.674 229.789 128.674C230.181 128.674 230.567 128.578 230.915 128.396C231.262 128.213 231.56 127.949 231.783 127.626C232.32 126.89 232.61 126.002 232.61 125.09C232.61 124.178 232.32 123.29 231.783 122.554C231.758 122.521 231.731 122.489 231.703 122.459C232.492 122.62 233.193 123.067 233.672 123.715C234.131 124.339 234.449 125.055 234.603 125.814C234.757 126.573 234.744 127.357 234.566 128.111L236.706 130.833L239.103 133.884L242.14 137.746L242.11 137.787C242.423 137.8 242.729 137.884 243.005 138.032C243.28 138.18 243.519 138.389 243.703 138.642Z" fill="#CCEFF6"/>
<path d="M234.305 133.883L236.705 136.934L235.612 138.326L234.305 133.883Z" fill="#006B99"/>
<path d="M234.305 133.883L235.612 138.326L233.665 140.797L233.633 140.758C233.634 141.488 233.398 142.198 232.961 142.782C232.778 143.046 232.535 143.261 232.251 143.41C231.967 143.559 231.652 143.636 231.332 143.636C231.011 143.636 230.696 143.559 230.412 143.41C230.129 143.261 229.885 143.046 229.703 142.782C229.266 142.181 229.031 141.456 229.031 140.712C229.031 139.968 229.266 139.244 229.703 138.642C229.887 138.389 230.127 138.18 230.403 138.031C230.679 137.883 230.984 137.798 231.297 137.784L231.265 137.744L234.305 133.883Z" fill="#CCEFF6"/>
<path d="M233.872 52.2563H231.257V82.6833H233.872V52.2563Z" fill="#FFCEB6"/>
<path d="M221.687 66.9868C221.857 67.1781 221.965 67.4165 221.998 67.6704C222.03 67.9243 221.986 68.1824 221.869 68.4103L221.692 68.7384L220.065 71.749C220.234 72.1234 220.333 72.5257 220.359 72.9357C220.454 74.3852 219.658 75.616 218.586 75.6819C217.515 75.7483 216.568 74.6343 216.473 73.1848C216.378 71.7353 217.174 70.5053 218.246 70.4385C218.444 70.4248 218.643 70.4519 218.831 70.5182L220.286 67.832L220.641 67.1729C220.681 67.0743 220.745 66.9875 220.828 66.9204C220.91 66.8537 221.008 66.8088 221.113 66.7899C221.217 66.7714 221.325 66.7796 221.425 66.814C221.526 66.8485 221.616 66.9078 221.687 66.9868Z" fill="#CCEFF6"/>
<path d="M213.218 133.4H192.22V94.5161C192.22 94.5161 195.31 95.4663 199.261 102.26C203.213 109.053 209.43 125.478 212.819 132.555C212.949 132.825 213.085 133.105 213.218 133.4Z" fill="#FFCEB6"/>
<path d="M200.826 200.868L200.783 200.854C200.783 200.854 202.796 200.887 204.074 200.854L202.428 208.235C201.789 204.787 200.83 201.03 200.786 200.858C200.799 200.863 200.813 200.866 200.826 200.868Z" fill="#006B99"/>
<path d="M192.22 133.4V143.988L192.208 144.079C191.352 143.97 190.777 143.86 190.777 143.86C189.194 142.789 187.575 141.614 186.034 140.434L186.085 140.369C186.34 139.767 186.471 139.121 186.47 138.468V133.404L192.22 133.4Z" fill="#CCEFF6"/>
<path d="M186.47 72.2332V66.9983C186.47 65.7008 185.956 64.4567 185.041 63.5391C184.126 62.622 182.885 62.1063 181.591 62.1063H152.647C151.353 62.1063 150.112 62.622 149.197 63.5391C148.282 64.4567 147.767 65.7008 147.767 66.9983V77.6649C147.767 78.3074 147.894 78.9435 148.139 79.537C148.384 80.1306 148.744 80.6696 149.197 81.1241C149.65 81.5782 150.188 81.9385 150.78 82.1843C151.372 82.4301 152.006 82.5565 152.647 82.5565H181.588C182.229 82.5565 182.863 82.4301 183.455 82.1843C184.048 81.9385 184.586 81.5782 185.039 81.1241C185.492 80.6696 185.851 80.1306 186.096 79.537C186.341 78.9435 186.468 78.3074 186.468 77.6649L186.47 72.2332ZM141.176 103.544V58.9697C141.176 56.6397 142.099 54.4054 143.742 52.758C145.386 51.1105 147.615 50.1848 149.938 50.1841H150.988C150.988 51.9394 151.683 53.6228 152.922 54.8644C154.16 56.1055 155.839 56.8029 157.59 56.8029H174.014C175.765 56.8017 177.444 56.1044 178.682 54.8633C179.921 53.6225 180.617 51.9394 180.619 50.1841H183.453C184.604 50.1837 185.744 50.411 186.807 50.8521C187.871 51.2936 188.837 51.9405 189.651 52.7565C190.466 53.5724 191.111 54.5407 191.552 55.6069C191.992 56.6731 192.22 57.8157 192.22 58.9697V133.4H186.47V127.803C186.47 126.506 185.956 125.262 185.041 124.344C184.126 123.427 182.885 122.911 181.591 122.911H152.647C151.353 122.911 150.112 123.427 149.197 124.344C148.282 125.262 147.767 126.506 147.767 127.803V138.467C147.767 139.765 148.282 141.009 149.197 141.926C150.112 142.844 151.353 143.359 152.647 143.359H159.246C159.45 143.693 159.676 144.013 159.922 144.317C164.131 149.531 170.781 151.289 175.16 151.635L176.035 152.53L175.853 152.778H149.938C147.614 152.777 145.385 151.85 143.742 150.201C142.098 148.553 141.175 146.318 141.176 143.987V103.544ZM147.774 103.544V108.066C147.774 109.363 148.288 110.608 149.204 111.525C150.119 112.443 151.36 112.958 152.654 112.958H181.595C182.889 112.958 184.13 112.443 185.045 111.525C185.96 110.608 186.474 109.363 186.474 108.066V97.4019C186.474 96.1047 185.96 94.8602 185.045 93.9431C184.13 93.0256 182.889 92.5103 181.595 92.5103H152.647C151.353 92.5103 150.112 93.0256 149.197 93.9431C148.282 94.8602 147.767 96.1047 147.767 97.4019L147.774 103.544Z" fill="#CCEFF6"/>
<path d="M186.47 133.4V138.463C186.471 139.116 186.34 139.763 186.085 140.364L186.034 140.429C184.883 139.545 183.775 138.656 182.77 137.804C181.69 136.879 180.455 136.153 179.123 135.659C179.455 135.083 179.649 134.438 179.692 133.774C179.735 133.11 179.625 132.446 179.371 131.832C179.117 131.218 178.725 130.67 178.226 130.232C177.727 129.794 177.135 129.476 176.494 129.304C175.853 129.132 175.181 129.11 174.531 129.24C173.88 129.37 173.268 129.648 172.742 130.053C172.216 130.458 171.79 130.979 171.496 131.575C171.203 132.171 171.05 132.828 171.05 133.493C171.05 133.983 171.135 134.469 171.3 134.931C169.706 134.592 165.751 133.868 163.452 134.425C161.626 134.872 157.746 137.61 158.462 141.372C158.603 142.075 158.869 142.747 159.246 143.356H152.647C151.353 143.356 150.112 142.841 149.197 141.923C148.282 141.006 147.767 139.761 147.767 138.464V127.804C147.767 126.506 148.282 125.262 149.197 124.344C150.112 123.427 151.353 122.912 152.647 122.912H181.588C182.882 122.912 184.123 123.427 185.039 124.344C185.953 125.262 186.468 126.506 186.468 127.804V133.4H186.47Z" fill="#CCEFF6"/>
<path d="M147.767 103.544V97.4022C147.767 96.1047 148.282 94.8606 149.197 93.9431C150.112 93.0259 151.353 92.5103 152.647 92.5103H181.588C182.882 92.5103 184.123 93.0259 185.039 93.9431C185.953 94.8606 186.468 96.1047 186.468 97.4022V108.066C186.468 109.364 185.953 110.608 185.039 111.525C184.123 112.443 182.882 112.958 181.588 112.958H152.647C151.353 112.958 150.112 112.443 149.197 111.525C148.282 110.608 147.767 109.364 147.767 108.066V103.544ZM161.844 103.639C161.844 102.782 161.59 101.944 161.115 101.231C160.64 100.518 159.964 99.9631 159.175 99.6354C158.384 99.3073 157.515 99.2217 156.677 99.3893C155.838 99.5565 155.068 99.9691 154.463 100.575C153.858 101.181 153.447 101.954 153.28 102.794C153.113 103.635 153.198 104.507 153.525 105.298C153.853 106.091 154.407 106.768 155.117 107.244C155.828 107.72 156.664 107.975 157.519 107.975C158.087 107.975 158.65 107.863 159.175 107.646C159.7 107.428 160.177 107.109 160.579 106.706C160.981 106.303 161.3 105.825 161.518 105.299C161.735 104.772 161.847 104.209 161.847 103.639H161.844Z" fill="#CCEFF6"/>
<path d="M186.47 72.2332V77.6649C186.47 78.3073 186.344 78.9435 186.099 79.5366C185.854 80.1302 185.494 80.6696 185.041 81.1237C184.588 81.5782 184.05 81.9385 183.458 82.1843C182.866 82.4301 182.231 82.5565 181.591 82.5565H152.647C152.006 82.5565 151.372 82.4301 150.78 82.1843C150.188 81.9385 149.65 81.5782 149.197 81.1237C148.744 80.6696 148.384 80.1302 148.139 79.5366C147.894 78.9435 147.767 78.3073 147.767 77.6649V67.0009C147.767 65.7034 148.282 64.4592 149.197 63.5417C150.112 62.6242 151.353 62.1089 152.647 62.1089H181.588C182.882 62.1089 184.123 62.6242 185.039 63.5417C185.953 64.4592 186.468 65.7034 186.468 67.0009L186.47 72.2332ZM179.701 72.3277C179.701 71.4699 179.447 70.6317 178.971 69.9184C178.496 69.2051 177.821 68.6494 177.03 68.3214C176.24 67.9929 175.37 67.9073 174.531 68.0745C173.692 68.2417 172.921 68.6546 172.316 69.2611C171.711 69.8676 171.299 70.6406 171.132 71.4817C170.965 72.3229 171.051 73.1948 171.378 73.987C171.706 74.7796 172.26 75.4569 172.972 75.9333C173.683 76.4096 174.519 76.664 175.375 76.664C176.522 76.6632 177.621 76.2061 178.432 75.3928C179.243 74.5798 179.698 73.4773 179.699 72.3277H179.701Z" fill="#CCEFF6"/>
<path d="M150.988 50.1841H180.619C180.617 51.9394 179.921 53.6225 178.682 54.8633C177.444 56.1044 175.765 56.8017 174.014 56.8029H157.59C155.839 56.8029 154.16 56.1055 152.921 54.8644C151.683 53.6228 150.988 51.9394 150.988 50.1841Z" fill="#006B99"/>
<path d="M179.699 133.494C179.698 134.254 179.499 135.001 179.122 135.66L178.86 135.574C178.851 135.573 178.842 135.57 178.834 135.567C178.649 135.502 178.464 135.447 178.278 135.399C178.188 135.374 178.097 135.349 178.006 135.326C177.883 135.294 177.763 135.268 177.643 135.241C177.494 135.212 177.349 135.183 177.204 135.155C176.942 135.108 176.691 135.075 176.434 135.049C175.569 134.965 174.698 134.954 173.831 135.017C173.787 135.017 173.745 135.024 173.699 135.024C173.623 135.031 173.551 135.035 173.478 135.038C173.25 135.052 173.039 135.067 172.846 135.082C172.561 135.104 172.275 135.104 171.99 135.082C171.99 135.082 171.733 135.02 171.292 134.926C171.127 134.464 171.043 133.978 171.042 133.487C171.034 132.913 171.14 132.343 171.354 131.809C171.567 131.276 171.885 130.791 172.287 130.382C172.69 129.973 173.169 129.647 173.698 129.426C174.227 129.204 174.794 129.09 175.367 129.09C175.941 129.09 176.508 129.204 177.037 129.426C177.566 129.647 178.045 129.973 178.448 130.382C178.85 130.791 179.167 131.276 179.381 131.809C179.595 132.343 179.701 132.913 179.693 133.487L179.699 133.494Z" fill="white"/>
<path d="M175.375 76.6645C177.764 76.6645 179.701 74.7227 179.701 72.3279C179.701 69.933 177.764 67.9912 175.375 67.9912C172.986 67.9912 171.049 69.933 171.049 72.3279C171.049 74.7227 172.986 76.6645 175.375 76.6645Z" fill="white"/>
<path d="M153.192 152.776H166.953C166.499 153.645 166.163 154.571 165.954 155.529L165.698 155.514C163.717 155.074 153.192 152.776 153.192 152.776Z" fill="#006B99"/>
<path d="M157.521 99.3032C158.377 99.3025 159.214 99.5564 159.926 100.032C160.638 100.508 161.193 101.186 161.521 101.978C161.848 102.771 161.934 103.642 161.768 104.484C161.601 105.326 161.19 106.098 160.585 106.705C159.98 107.312 159.209 107.725 158.37 107.893C157.53 108.06 156.66 107.975 155.87 107.646C155.079 107.318 154.403 106.762 153.928 106.049C153.452 105.336 153.199 104.497 153.199 103.639C153.2 102.49 153.655 101.387 154.465 100.574C155.276 99.7614 156.375 99.3043 157.521 99.3032Z" fill="white"/>
<path d="M147.396 50.1841H149.938C147.615 50.1848 145.386 51.1105 143.742 52.758C142.099 54.4054 141.176 56.6397 141.176 58.9697V103.544H138.633V58.9697C138.633 56.6397 139.557 54.4054 141.2 52.758C142.843 51.1105 145.072 50.1848 147.396 50.1841Z" fill="#006B99"/>
<path d="M149.938 152.776H147.396C145.071 152.776 142.841 151.85 141.197 150.202C139.553 148.553 138.629 146.318 138.629 143.987V103.544H141.176V143.987C141.176 146.318 142.099 148.552 143.742 150.2C145.385 151.848 147.614 152.775 149.938 152.776Z" fill="#006B99"/>
<path d="M135.963 128.321V139.443C135.963 139.443 132 138.762 126.611 137.863C121.223 136.964 121.218 130.482 124.098 128.321C126.978 126.159 135.592 128.321 135.592 128.321H135.963Z" fill="#FFCEB6"/>
<path d="M119.061 99.8925V105.74H117.299C116.649 105.74 116.322 106.73 116.785 107.313L118.031 108.882L114.748 113.018L113.501 111.448C113.039 110.866 112.255 111.277 112.255 112.097V114.317H107.61V112.097C107.61 111.278 106.825 110.866 106.364 111.448L105.118 113.018L101.835 108.882L103.081 107.313C103.542 106.73 103.215 105.74 102.567 105.74H100.803V99.8925H102.567C103.217 99.8925 103.544 98.899 103.081 98.3195L101.835 96.7473L105.118 92.6116L106.364 94.1805C106.825 94.7596 107.61 94.3521 107.61 93.5291V91.3115H112.255V93.5325C112.255 94.3547 113.039 94.7633 113.501 94.1838L114.746 92.615L118.029 96.7473L116.784 98.3162C116.322 98.8953 116.649 99.8892 117.298 99.8892L119.061 99.8925ZM112.687 102.817C112.687 100.898 111.452 99.3427 109.934 99.3427C108.417 99.3427 107.178 100.898 107.178 102.817C107.178 104.736 108.412 106.286 109.934 106.286C111.456 106.286 112.687 104.728 112.687 102.817Z" fill="#CCEFF6"/>
<path d="M95.7306 86.2217H92.7523V120.868H95.7306V86.2217Z" fill="#FFCEB6"/>
<path d="M95.7306 86.2217L124.882 88.7704V118.319L95.7306 120.868" stroke="#006B99" stroke-width="3.704" stroke-linecap="round" stroke-linejoin="round"/>
<path d="M95.7306 86.2217H92.7523V120.868H95.7306V86.2217Z" stroke="#006B99" stroke-width="3.704" stroke-linecap="round" stroke-linejoin="round"/>
<path d="M231.257 52.2563L205.657 57.7719V85.5445L231.257 82.6825" stroke="#006B99" stroke-width="3.704" stroke-linecap="round" stroke-linejoin="round"/>
<path d="M233.872 52.2563H231.257V82.6833H233.872V52.2563Z" stroke="#006B99" stroke-width="3.704" stroke-linecap="round" stroke-linejoin="round"/>
<path d="M249.965 117.427L223.125 119.772V146.972L249.965 149.321" stroke="#006B99" stroke-width="3.704" stroke-linecap="round" stroke-linejoin="round"/>
<path d="M252.707 117.427H249.965V149.32H252.707V117.427Z" stroke="#006B99" stroke-width="3.704" stroke-linecap="round" stroke-linejoin="round"/>
<path d="M180.619 50.1841H183.453C184.604 50.1837 185.744 50.411 186.807 50.8521C187.871 51.2936 188.837 51.9405 189.651 52.7565C190.466 53.5724 191.111 54.5407 191.552 55.6069C191.993 56.6731 192.22 57.8157 192.22 58.9697V143.987" stroke="#006B99" stroke-width="3.704" stroke-linecap="round" stroke-linejoin="round"/>
<path d="M150.523 50.1841H150.988" stroke="#006B99" stroke-width="3.704" stroke-linecap="round" stroke-linejoin="round"/>
<path d="M147.396 152.776C145.071 152.776 142.841 151.85 141.197 150.202C139.553 148.554 138.629 146.318 138.629 143.987V58.9697C138.629 57.8157 138.856 56.6731 139.296 55.6069C139.737 54.5407 140.383 53.5724 141.197 52.7565C142.011 51.9405 142.978 51.2936 144.041 50.8521C145.105 50.411 146.245 50.1837 147.396 50.1841" stroke="#006B99" stroke-width="3.704" stroke-linecap="round" stroke-linejoin="round"/>
<path d="M175.851 152.776H166.953H153.192H150.523" stroke="#006B99" stroke-width="3.704" stroke-linecap="round" stroke-linejoin="round"/>
<path d="M149.938 152.776C147.614 152.775 145.385 151.848 143.742 150.2C142.099 148.552 141.176 146.318 141.176 143.987V58.9697C141.176 56.6397 142.099 54.4054 143.742 52.758C145.386 51.1105 147.615 50.1848 149.938 50.1841" stroke="#006B99" stroke-width="3.704" stroke-linecap="round" stroke-linejoin="round"/>
<path d="M139.391 151.243C138.33 150.482 137.464 149.477 136.868 148.313C136.272 147.149 135.962 145.858 135.963 144.55V58.4084C135.963 57.3278 136.175 56.2579 136.588 55.2596C137 54.2616 137.605 53.3545 138.367 52.5908C139.13 51.8267 140.035 51.2213 141.031 50.8084C142.027 50.3954 143.094 50.1833 144.172 50.1841H150.527" stroke="#006B99" stroke-width="3.704" stroke-linecap="round" stroke-linejoin="round"/>
<path d="M150.523 152.776H144.172C142.46 152.779 140.79 152.242 139.399 151.24" stroke="#006B99" stroke-width="3.704" stroke-linecap="round" stroke-linejoin="round"/>
<path d="M180.619 50.1841C180.617 51.9394 179.921 53.6225 178.682 54.8633C177.444 56.1044 175.765 56.8017 174.014 56.8029H157.59C155.839 56.8029 154.16 56.1055 152.921 54.8644C151.683 53.6228 150.988 51.9394 150.988 50.1841H180.619Z" stroke="#006B99" stroke-width="3.704" stroke-linecap="round" stroke-linejoin="round"/>
<path d="M181.589 82.555H152.647C151.353 82.555 150.112 82.0394 149.197 81.1222C148.282 80.2047 147.767 78.9605 147.767 77.663V67.0009C147.767 65.7034 148.282 64.4592 149.197 63.5417C150.112 62.6242 151.353 62.1089 152.647 62.1089H181.588C182.882 62.1089 184.123 62.6242 185.039 63.5417C185.953 64.4592 186.468 65.7034 186.468 67.0009V77.6649C186.467 78.9617 185.953 80.2054 185.038 81.1226C184.123 82.0393 182.883 82.5546 181.589 82.555Z" stroke="#006B99" stroke-width="3.704" stroke-linecap="round" stroke-linejoin="round"/>
<path d="M181.589 112.956H152.647C151.353 112.956 150.112 112.441 149.197 111.524C148.282 110.606 147.767 109.362 147.767 108.065V97.4022C147.767 96.1047 148.282 94.8606 149.197 93.9431C150.112 93.0259 151.353 92.5103 152.647 92.5103H181.588C182.882 92.5103 184.123 93.0259 185.039 93.9431C185.953 94.8606 186.468 96.1047 186.468 97.4022V108.066C186.467 109.363 185.953 110.607 185.038 111.524C184.123 112.441 182.883 112.956 181.589 112.956Z" stroke="#006B99" stroke-width="3.704" stroke-linecap="round" stroke-linejoin="round"/>
<path d="M159.25 143.358H152.647C151.353 143.358 150.112 142.842 149.197 141.925C148.282 141.007 147.767 139.763 147.767 138.466V127.804C147.767 126.506 148.282 125.262 149.197 124.344C150.112 123.427 151.353 122.912 152.647 122.912H181.588C182.882 122.912 184.123 123.427 185.039 124.344C185.953 125.262 186.468 126.506 186.468 127.804V138.468C186.468 139.121 186.337 139.767 186.082 140.369" stroke="#006B99" stroke-width="3.704" stroke-linecap="round" stroke-linejoin="round"/>
<path d="M127.468 103.544H135.963H138.629H141.171H147.77H150.988" stroke="#006B99" stroke-width="3.704" stroke-linecap="round" stroke-linejoin="round"/>
<path d="M171.3 134.933C169.706 134.593 165.751 133.869 163.452 134.426C161.626 134.874 157.746 137.612 158.462 141.373C158.603 142.076 158.869 142.748 159.246 143.357C159.45 143.691 159.676 144.011 159.922 144.315C164.131 149.529 170.781 151.287 175.16 151.633L176.035 152.528C178.163 154.717 183.556 160.252 184.991 161.797C184.991 161.797 189.175 178.239 193.802 182.877C200.063 189.158 203.647 190.949 207.67 191.549" stroke="#006B99" stroke-width="3.704" stroke-linecap="round" stroke-linejoin="round"/>
<path d="M173.483 135.042C173.254 135.056 173.044 135.07 172.851 135.086" stroke="#006B99" stroke-width="3.704" stroke-linecap="round" stroke-linejoin="round"/>
<path d="M177.206 135.158C176.944 135.111 176.692 135.079 176.435 135.053C175.57 134.968 174.699 134.957 173.832 135.02" stroke="#006B99" stroke-width="3.704" stroke-linecap="round" stroke-linejoin="round"/>
<path d="M178.008 135.326C177.885 135.293 177.765 135.267 177.645 135.24" stroke="#006B99" stroke-width="3.704" stroke-linecap="round" stroke-linejoin="round"/>
<path d="M178.836 135.566C178.651 135.501 178.466 135.446 178.28 135.398" stroke="#006B99" stroke-width="3.704" stroke-linecap="round" stroke-linejoin="round"/>
<path d="M197.979 147.948C195.445 146.837 193.032 145.466 190.777 143.86C189.194 142.789 187.575 141.614 186.034 140.434C184.883 139.549 183.775 138.661 182.77 137.808C181.69 136.884 180.455 136.157 179.123 135.663L178.862 135.577" stroke="#006B99" stroke-width="3.704" stroke-linecap="round" stroke-linejoin="round"/>
<path d="M190.777 143.863C190.777 143.863 191.352 143.973 192.208 144.082C193.98 144.311 196.973 144.551 198.637 143.863" stroke="#006B99" stroke-width="3.704" stroke-linecap="round" stroke-linejoin="round"/>
<path d="M173.706 135.023C172.769 136.053 168.244 139.502 168.827 143.856" stroke="#006B99" stroke-width="3.704" stroke-linecap="round" stroke-linejoin="round"/>
<path d="M158.462 141.374C160.169 142.655 164.363 143.434 166.005 142.51C166.005 142.51 166.972 137.576 169.143 135.935" stroke="#006B99" stroke-width="3.704" stroke-linecap="round" stroke-linejoin="round"/>
<path d="M248.124 213.244C248.124 213.244 248.124 208.973 245.054 201.315C242.476 194.871 229.765 175.588 225.81 164.55C222.007 153.933 216.64 140.692 213.218 133.402C213.084 133.107 212.949 132.827 212.819 132.554C209.43 125.476 203.217 109.056 199.261 102.259C195.307 95.4618 192.22 94.5161 192.22 94.5161" stroke="#006B99" stroke-width="3.704" stroke-linecap="round" stroke-linejoin="round"/>
<path d="M200.826 200.868L200.783 200.854V200.861C200.826 201.032 201.785 204.79 202.425 208.237C202.797 209.879 202.975 211.56 202.955 213.244" stroke="#006B99" stroke-width="3.704" stroke-linecap="round" stroke-linejoin="round"/>
<path d="M164.763 165.562C164.646 166.151 164.598 166.751 164.618 167.35C164.618 167.537 164.629 167.722 164.643 167.907C164.764 169.251 165.259 170.534 166.07 171.61C167.697 173.769 170.447 177.206 172.016 177.941C172.016 177.941 187.545 197.423 194.708 199.295C199.403 200.523 200.554 200.81 200.785 200.861C200.799 200.864 200.812 200.867 200.826 200.868C200.831 200.87 200.835 200.87 200.84 200.868" stroke="#006B99" stroke-width="3.704" stroke-linecap="round" stroke-linejoin="round"/>
<path d="M164.618 167.907C164.618 167.907 156.457 166.963 152.073 165.563C152.073 165.563 145.09 163.728 143.143 162.887C143.143 162.887 130.941 158.347 127.857 156.559C124.774 154.771 126.231 147.278 132.404 149.069C136.039 150.122 139.243 151.188 139.392 151.24" stroke="#006B99" stroke-width="3.704" stroke-linecap="round" stroke-linejoin="round"/>
<path d="M142.184 155.15C142.184 155.15 141.756 157.079 141.651 158.045" stroke="#006B99" stroke-width="3.704" stroke-linecap="round" stroke-linejoin="round"/>
<path d="M153.443 156.971C153.443 156.971 153.015 159.992 152.909 160.958" stroke="#006B99" stroke-width="3.704" stroke-linecap="round" stroke-linejoin="round"/>
<path d="M200.783 200.854C200.783 200.854 202.796 200.887 204.074 200.854L202.428 208.235" stroke="#006B99" stroke-width="3.704" stroke-linecap="round" stroke-linejoin="round"/>
<path d="M135.592 128.321C135.592 128.321 126.971 126.158 124.098 128.321C121.225 130.483 121.222 136.964 126.611 137.863C132.001 138.763 135.963 139.443 135.963 139.443" stroke="#006B99" stroke-width="3.704" stroke-linecap="round" stroke-linejoin="round"/>
<path d="M166.953 152.776C166.499 153.645 166.163 154.571 165.954 155.529C165.818 156.121 165.732 156.724 165.698 157.331" stroke="#006B99" stroke-width="3.704" stroke-linecap="round" stroke-linejoin="round"/>
<path d="M153.192 152.776C153.192 152.776 163.717 155.074 165.696 155.514" stroke="#006B99" stroke-width="3.704" stroke-linecap="round" stroke-linejoin="round"/>
<path d="M161.847 103.639C161.847 104.496 161.593 105.334 161.118 106.047C160.643 106.759 159.968 107.315 159.178 107.643C158.388 107.971 157.518 108.057 156.68 107.889C155.841 107.722 155.071 107.31 154.466 106.703C153.861 106.097 153.45 105.325 153.282 104.484C153.116 103.644 153.201 102.772 153.528 101.98C153.855 101.188 154.409 100.511 155.12 100.035C155.831 99.5579 156.666 99.3036 157.521 99.3032C158.09 99.3032 158.652 99.4152 159.177 99.6332C159.702 99.8508 160.179 100.17 160.58 100.573C160.982 100.976 161.301 101.453 161.518 101.979C161.735 102.505 161.847 103.069 161.847 103.639Z" stroke="#006B99" stroke-width="3.704" stroke-linecap="round" stroke-linejoin="round"/>
<path d="M201.796 72.2334H192.22H186.47H181.912" stroke="#006B99" stroke-width="3.704" stroke-linecap="round" stroke-linejoin="round"/>
<path d="M175.375 76.6645C177.764 76.6645 179.701 74.7227 179.701 72.3279C179.701 69.933 177.764 67.9912 175.375 67.9912C172.986 67.9912 171.049 69.933 171.049 72.3279C171.049 74.7227 172.986 76.6645 175.375 76.6645Z" stroke="#006B99" stroke-width="3.704" stroke-linecap="round" stroke-linejoin="round"/>
<path d="M219.955 133.4H213.218H192.22H186.47H181.912" stroke="#006B99" stroke-width="3.704" stroke-linecap="round" stroke-linejoin="round"/>
<path d="M171.3 134.932C171.736 135.027 171.998 135.089 171.998 135.089C172.283 135.11 172.569 135.11 172.854 135.089C173.049 135.077 173.26 135.062 173.486 135.045C173.558 135.045 173.631 135.038 173.707 135.03C173.751 135.03 173.793 135.03 173.838 135.023C174.705 134.962 175.576 134.973 176.441 135.056C176.689 135.082 176.946 135.118 177.212 135.161C177.357 135.187 177.502 135.216 177.651 135.247C177.771 135.273 177.891 135.302 178.014 135.333C178.105 135.356 178.196 135.38 178.286 135.406C178.472 135.457 178.657 135.512 178.842 135.573C178.85 135.577 178.859 135.579 178.867 135.581C178.953 135.609 179.039 135.639 179.124 135.672V135.668C179.455 135.092 179.65 134.447 179.693 133.783C179.736 133.12 179.626 132.455 179.372 131.841C179.118 131.226 178.726 130.679 178.227 130.241C177.728 129.803 177.135 129.485 176.495 129.313C175.854 129.142 175.183 129.12 174.532 129.249C173.881 129.379 173.269 129.657 172.743 130.062C172.217 130.467 171.79 130.988 171.497 131.584C171.204 132.181 171.051 132.836 171.051 133.502C171.052 133.989 171.136 134.473 171.3 134.932Z" stroke="#006B99" stroke-width="3.704" stroke-linecap="round" stroke-linejoin="round"/>
<path d="M119.061 99.8925H117.299C116.649 99.8925 116.322 98.899 116.785 98.3195L118.029 96.7473L114.746 92.6116L113.501 94.1805C113.039 94.7596 112.255 94.3521 112.255 93.5291V91.3115H107.61V93.5325C107.61 94.3547 106.825 94.7633 106.364 94.1838L105.118 92.615L101.835 96.7473L103.081 98.3195C103.542 98.899 103.215 99.8925 102.567 99.8925H100.803V105.74H102.567C103.217 105.74 103.544 106.73 103.081 107.313L101.835 108.882L105.118 113.018L106.364 111.448C106.825 110.866 107.61 111.277 107.61 112.097V114.317H112.255V112.097C112.255 111.278 113.039 110.866 113.501 111.448L114.746 113.018L118.029 108.882L116.784 107.313C116.322 106.73 116.649 105.74 117.298 105.74H119.059V99.8925H119.061Z" stroke="#006B99" stroke-width="3.704" stroke-linecap="round" stroke-linejoin="round"/>
<path d="M112.687 102.817C112.687 104.731 111.452 106.286 109.934 106.286C108.417 106.286 107.178 104.731 107.178 102.817C107.178 100.902 108.412 99.3428 109.934 99.3428C111.456 99.3428 112.687 100.898 112.687 102.817Z" stroke="#006B99" stroke-width="3.704" stroke-linecap="round" stroke-linejoin="round"/>
<path d="M220.282 67.8313C219.583 67.514 218.816 67.3724 218.049 67.4195C216.371 67.5285 214.914 68.7344 213.916 70.4783C212.873 72.3774 212.395 74.5369 212.539 76.7004C212.546 76.8127 212.554 76.9295 212.565 77.0437" stroke="#006B99" stroke-width="3.704" stroke-linecap="round" stroke-linejoin="round"/>
<path d="M224.636 75.5247C224.636 75.4113 224.63 75.299 224.622 75.1815C224.525 73.3142 223.905 71.5121 222.832 69.9825C222.501 69.524 222.119 69.1062 221.692 68.7373" stroke="#006B99" stroke-width="3.704" stroke-linecap="round" stroke-linejoin="round"/>
<path d="M224.636 75.5247L228.232 75.2916C228.225 75.1789 228.225 75.0658 228.217 74.9483C228.061 71.9818 227.078 69.1184 225.381 66.6835C223.431 63.9895 220.681 62.3762 217.74 62.5693C214.911 62.7554 212.473 64.7725 210.883 67.6997C209.395 70.5375 208.725 73.7353 208.951 76.9331C208.958 77.0491 208.969 77.1622 208.976 77.2764L212.572 77.0439" stroke="#006B99" stroke-width="3.704" stroke-linecap="round" stroke-linejoin="round"/>
<path d="M221.692 68.7381L221.869 68.4104C221.986 68.1824 222.03 67.9244 221.998 67.6704C221.965 67.4161 221.857 67.1781 221.687 66.9865C221.616 66.9071 221.526 66.8471 221.425 66.8122C221.324 66.7774 221.216 66.7688 221.111 66.7874C221.006 66.8059 220.907 66.8511 220.824 66.9186C220.742 66.9861 220.677 67.0736 220.638 67.1729L220.282 67.8321L218.827 70.5183C218.64 70.4519 218.441 70.4245 218.243 70.4382C217.171 70.5079 216.375 71.7387 216.469 73.1845C216.564 74.6306 217.512 75.7517 218.583 75.682C219.654 75.6127 220.45 74.3826 220.356 72.9357C220.33 72.5257 220.23 72.1235 220.062 71.7487L221.692 68.7381Z" stroke="#006B99" stroke-width="3.704" stroke-linecap="round" stroke-linejoin="round"/>
<path d="M217.736 62.5698L218.049 67.4199" stroke="#006B99" stroke-width="3.704" stroke-linecap="round" stroke-linejoin="round"/>
<path d="M210.905 67.7148L213.534 70.4526" stroke="#006B99" stroke-width="3.704" stroke-linecap="round" stroke-linejoin="round"/>
<path d="M225.247 66.7788L223.046 69.8339" stroke="#006B99" stroke-width="3.704" stroke-linecap="round" stroke-linejoin="round"/>
<path d="M239.11 133.884L241.25 131.161C241.871 131.374 242.544 131.378 243.168 131.174C243.791 130.97 244.332 130.568 244.708 130.028C245.264 129.3 245.607 128.431 245.699 127.52C245.673 127.553 245.649 127.589 245.623 127.625C245.399 127.948 245.101 128.213 244.754 128.395C244.406 128.578 244.019 128.673 243.627 128.673C243.235 128.673 242.848 128.578 242.5 128.395C242.153 128.213 241.854 127.948 241.631 127.625C241.095 126.889 240.806 126.001 240.806 125.089C240.806 124.178 241.095 123.29 241.631 122.554C241.657 122.52 241.685 122.488 241.717 122.458C240.926 122.618 240.222 123.066 239.741 123.715C239.283 124.339 238.966 125.055 238.812 125.814C238.659 126.573 238.672 127.356 238.851 128.11L236.711 130.833" stroke="#006B99" stroke-width="3.704" stroke-linecap="round" stroke-linejoin="round"/>
<path d="M234.305 133.883L231.265 137.745L231.297 137.786C230.984 137.8 230.679 137.884 230.403 138.033C230.127 138.181 229.887 138.39 229.702 138.644C229.266 139.245 229.031 139.97 229.031 140.713C229.031 141.457 229.266 142.182 229.702 142.783C229.885 143.047 230.128 143.262 230.412 143.411C230.696 143.56 231.011 143.638 231.332 143.638C231.652 143.638 231.967 143.56 232.251 143.411C232.535 143.262 232.778 143.047 232.961 142.783C233.398 142.2 233.634 141.489 233.633 140.759L233.665 140.799L235.612 138.327L236.705 136.936" stroke="#006B99" stroke-width="3.704" stroke-linecap="round" stroke-linejoin="round"/>
<path d="M236.705 130.833L234.565 128.11C234.744 127.356 234.756 126.573 234.602 125.813C234.448 125.054 234.13 124.338 233.671 123.715C233.192 123.066 232.491 122.619 231.702 122.458C231.73 122.489 231.757 122.521 231.782 122.554C232.319 123.289 232.609 124.178 232.609 125.089C232.609 126.001 232.319 126.889 231.782 127.625C231.559 127.948 231.261 128.213 230.914 128.395C230.567 128.578 230.18 128.673 229.788 128.673C229.396 128.673 229.01 128.578 228.663 128.395C228.315 128.213 228.017 127.948 227.794 127.625C227.765 127.589 227.743 127.553 227.718 127.52C227.81 128.431 228.152 129.299 228.706 130.028C229.082 130.568 229.623 130.971 230.247 131.175C230.872 131.379 231.546 131.374 232.167 131.161L234.307 133.884L236.704 136.935L239.744 140.797L239.773 140.757C239.773 141.487 240.008 142.197 240.444 142.781C240.627 143.045 240.87 143.26 241.154 143.409C241.438 143.558 241.754 143.636 242.073 143.636C242.394 143.636 242.709 143.558 242.993 143.409C243.277 143.26 243.52 143.045 243.703 142.781C244.142 142.181 244.378 141.455 244.378 140.711C244.378 139.967 244.142 139.242 243.703 138.642C243.519 138.388 243.281 138.179 243.005 138.03C242.73 137.882 242.425 137.798 242.112 137.784L242.141 137.743L239.105 133.881L236.705 130.833Z" stroke="#006B99" stroke-width="3.704" stroke-linecap="round" stroke-linejoin="round"/>
<path d="M234.305 133.883L235.612 138.326" stroke="#006B99" stroke-width="3.704" stroke-linecap="round" stroke-linejoin="round"/>
</g>
<defs>
<clipPath id="clip0_2_1495">
<rect width="355" height="238" fill="white"/>
</clipPath>
</defs>
</svg>
